<svg xmlns="http://www.w3.org/2000/svg" viewBox="0 0 111 153">
	<path d="M93,17H18v28h75V17z M22,22v18h3.7v-8h7v8h3.7V22h-3.7v6.9h-7V22H22z M53.2,25.2V22H38.6v3.2H44V40h3.8V25.2H53.2z M67.3,22h5.4v18h-3.5V27.8c0-0.4,0-0.8,0-1.5c0-0.6,0-1.1,0-1.5L65.8,40h-3.6l-3.4-15.1c0,0.3,0,0.8,0,1.5c0,0.6,0,1.1,0,1.5V40h-3.5V22h5.5l3.3,14.1L67.3,22z M80,22h-3.8v18h12.7v-3.2H80V22z M18,64h9v8h-9V64z M93,64H36v8h57V64z M18,102h9v8h-9V102zM93,102H36v8h57V102z M18,121h9v8h-9V121z M84,121H36v8h48V121z M18,83h9v8h-9V83z M75,83H36v8h39V83z" fill-rule="evenodd" clip-rule="evenodd" fill="#B1B4B6" />
</svg>
