<svg xmlns="http://www.w3.org/2000/svg" viewBox="0 0 111 153">
	<path d="M18,17h75v28H18V17z M37.9,40.5c-2.6,0-4.5-0.7-5.9-2.1c-1.8-1.7-2.7-4.2-2.7-7.4c0-3.3,0.9-5.8,2.7-7.4c1.4-1.4,3.3-2.1,5.9-2.1c2.6,0,4.5,0.7,5.9,2.1c1.8,1.7,2.7,4.1,2.7,7.4c0,3.2-0.9,5.7-2.7,7.4C42.4,39.8,40.4,40.5,37.9,40.5zM41.4,35.7c0.9-1.1,1.3-2.7,1.3-4.7c0-2-0.4-3.6-1.3-4.7c-0.9-1.1-2.1-1.7-3.5-1.7c-1.5,0-2.7,0.5-3.6,1.6C33.4,27.4,33,29,33,31s0.4,3.6,1.3,4.7c0.9,1.1,2.1,1.6,3.6,1.6C39.4,37.3,40.5,36.8,41.4,35.7z M57.1,40h-7.8V22h7.8c1.1,0,2,0.1,2.8,0.4c1.3,0.4,2.3,1.2,3.1,2.3c0.6,0.9,1.1,1.9,1.3,2.9c0.2,1,0.3,2,0.3,3c0,2.4-0.5,4.4-1.4,6.1C61.8,38.9,59.8,40,57.1,40z M59.9,26.6c-0.6-1-1.7-1.5-3.4-1.5H53v11.7h3.5c1.8,0,3-0.9,3.7-2.6c0.4-1,0.6-2.1,0.6-3.4C60.8,29,60.5,27.6,59.9,26.6z M74,37.4c0.9,0,1.6-0.1,2.2-0.3c1-0.4,1.6-1.1,1.6-2.1c0-0.6-0.3-1.1-0.8-1.4c-0.5-0.3-1.3-0.6-2.5-0.8l-1.9-0.4c-1.9-0.4-3.2-0.9-3.9-1.4c-1.2-0.8-1.8-2.1-1.8-3.9c0-1.6,0.6-3,1.8-4c1.2-1.1,2.9-1.6,5.2-1.6c1.9,0,3.5,0.5,4.8,1.5c1.3,1,2,2.5,2.1,4.4h-3.6c-0.1-1.1-0.5-1.9-1.4-2.3c-0.6-0.3-1.3-0.5-2.2-0.5c-1,0-1.7,0.2-2.3,0.6c-0.6,0.4-0.9,0.9-0.9,1.6c0,0.6,0.3,1.1,0.9,1.4c0.4,0.2,1.1,0.5,2.3,0.7l3.1,0.7c1.4,0.3,2.4,0.8,3.1,1.3c1.1,0.8,1.6,2.1,1.6,3.7c0,1.6-0.6,3-1.9,4.1c-1.3,1.1-3,1.6-5.3,1.6c-2.3,0-4.2-0.5-5.5-1.6c-1.3-1.1-2-2.5-2-4.4h3.6c0.1,0.8,0.3,1.4,0.7,1.8C71.4,37,72.5,37.4,74,37.4z M18,64h75v65H18V64z M53,66H36v7h17V66z M55,66h17v7H55V66z M74,66h17v7H74V66z M74,75h17v7H74V75z M72,75H55v7h17V75z M36,75h17v7H36V75z M91,84H74v7h17V84zM55,84h17v7H55V84z M53,84H36v7h17V84z M74,93h17v7H74V93z M72,93H55v7h17V93z M36,93h17v7H36V93z M91,102H74v7h17V102z M55,102h17v7H55V102z M53,102H36v7h17V102z M74,111h17v7H74V111z M72,111H55v7h17V111z M36,111h17v7H36V111z M91,120H74v7h17V120z M55,120h17v7H55V120z M53,120H36v7h17V120z" fill-rule="evenodd" clip-rule="evenodd" fill="#B1B4B6" />
</svg>
