<svg xmlns="http://www.w3.org/2000/svg" viewBox="0 0 111 153">
	<path d="M18,17h75v28H18V17z M53.2,35.8c-0.3-0.4-0.6-1-0.7-1.8H49c0,1.9,0.7,3.3,2,4.4c1.3,1.1,3.2,1.6,5.5,1.6c2.3,0,4.1-0.5,5.3-1.6c1.3-1.1,1.9-2.5,1.9-4.1c0-1.6-0.5-2.8-1.6-3.7c-0.7-0.5-1.7-1-3.1-1.3L56,28.5c-1.2-0.3-2-0.5-2.3-0.7c-0.6-0.3-0.9-0.8-0.9-1.4c0-0.7,0.3-1.2,0.9-1.6c0.6-0.4,1.4-0.6,2.3-0.6c0.9,0,1.6,0.2,2.2,0.5c0.9,0.5,1.4,1.2,1.4,2.3h3.6c-0.1-1.9-0.8-3.4-2.1-4.4c-1.3-1-3-1.5-4.8-1.5c-2.3,0-4,0.5-5.2,1.6c-1.2,1.1-1.8,2.4-1.8,4c0,1.8,0.6,3.1,1.8,3.9c0.7,0.5,2,1,3.9,1.4l1.9,0.4c1.1,0.2,1.9,0.5,2.5,0.8c0.5,0.3,0.8,0.8,0.8,1.4c0,1-0.5,1.7-1.6,2.1c-0.6,0.2-1.3,0.3-2.2,0.3C54.9,36.9,53.9,36.5,53.2,35.8z M33.5,23.4c-1.7,1.7-2.5,4.1-2.5,7.3c0,2.9,0.7,5.2,2.2,6.9c1.5,1.7,3.5,2.5,6.1,2.5c2.1,0,3.8-0.6,5.1-1.8c1.3-1.2,2.2-2.8,2.5-4.8h-3.7c-0.3,0.9-0.6,1.6-1,2.1c-0.7,0.9-1.7,1.3-3,1.3c-1.3,0-2.3-0.5-3.2-1.5c-0.8-1-1.2-2.5-1.2-4.5s0.4-3.6,1.2-4.7c0.8-1.1,1.9-1.7,3.2-1.7c1.3,0,2.4,0.4,3,1.2c0.4,0.4,0.7,1.1,0.9,2H47c-0.1-1.1-0.5-2.2-1.2-3.4c-1.4-2-3.6-3-6.6-3C36.9,21.2,35,21.9,33.5,23.4z M77.1,21.5H81l-6.1,18h-3.6l-6.1-18h4l3.9,13.7L77.1,21.5z M18,64h75v65H18V64z M53,66H36v7h17V66z M55,66h17v7H55V66z M74,66h17v7H74V66z M74,75h17v7H74V75z M72,75H55v7h17V75zM36,75h17v7H36V75z M91,84H74v7h17V84z M55,84h17v7H55V84z M53,84H36v7h17V84z M74,93h17v7H74V93z M72,93H55v7h17V93z M36,93h17v7H36V93z M91,102H74v7h17V102z M55,102h17v7H55V102z M53,102H36v7h17V102z M74,111h17v7H74V111z M72,111H55v7h17V111z M36,111h17v7H36V111z M91,120H74v7h17V120z M55,120h17v7H55V120z M53,120H36v7h17V120z" fill-rule="evenodd" clip-rule="evenodd" fill="#B1B4B6" />
</svg>
