<svg xmlns="http://www.w3.org/2000/svg" viewBox="0 0 111 153">
	<path d="M18,17h75v28H18V17z M68.2,35c0.1,0.8,0.3,1.4,0.7,1.8c0.6,0.7,1.7,1.1,3.1,1.1c0.9,0,1.6-0.1,2.2-0.3c1-0.4,1.6-1.1,1.6-2.1c0-0.6-0.3-1.1-0.8-1.4c-0.5-0.3-1.3-0.6-2.5-0.8l-1.9-0.4c-1.9-0.4-3.2-0.9-3.9-1.4c-1.2-0.8-1.8-2.1-1.8-3.9c0-1.6,0.6-3,1.8-4c1.2-1.1,2.9-1.6,5.2-1.6c1.9,0,3.5,0.5,4.8,1.5c1.3,1,2,2.5,2.1,4.4h-3.6c-0.1-1.1-0.5-1.9-1.4-2.3c-0.6-0.3-1.3-0.5-2.2-0.5c-1,0-1.7,0.2-2.3,0.6c-0.6,0.4-0.9,0.9-0.9,1.6c0,0.6,0.3,1.1,0.9,1.4c0.4,0.2,1.1,0.5,2.3,0.7l3.1,0.7c1.4,0.3,2.4,0.8,3.1,1.3c1.1,0.8,1.6,2.1,1.6,3.7c0,1.6-0.6,3-1.9,4.1c-1.3,1.1-3,1.6-5.3,1.6c-2.3,0-4.2-0.5-5.5-1.6c-1.3-1.1-2-2.5-2-4.4H68.2z M32,40.5h4.4l3.6-6.1l3.4,6.1H48l-5.8-9.3l5.5-8.7h-4.3L40,28.4l-3.2-5.8h-4.5l5.5,8.8L32,40.5z M53.9,22.5h-3.8v18h12.7v-3.2h-8.9V22.5z M18,64h75v65H18V64z M53,66H36v7h17V66z M55,66h17v7H55V66z M74,66h17v7H74V66z M74,75h17v7H74V75z M72,75H55v7h17V75z M36,75h17v7H36V75z M91,84H74v7h17V84z M55,84h17v7H55V84z M53,84H36v7h17V84zM74,93h17v7H74V93z M72,93H55v7h17V93z M36,93h17v7H36V93z M91,102H74v7h17V102z M55,102h17v7H55V102z M53,102H36v7h17V102zM74,111h17v7H74V111z M72,111H55v7h17V111z M36,111h17v7H36V111z M91,120H74v7h17V120z M55,120h17v7H55V120z M53,120H36v7h17V120z" fill-rule="evenodd" clip-rule="evenodd" fill="#B1B4B6" />
</svg>
