<svg xmlns="http://www.w3.org/2000/svg" viewBox="0 0 111 153">
	<path d="M93,17H18v28h75V17z M42,27.7c0-0.9-0.2-1.6-0.7-2c-0.5-0.4-1.2-0.6-2.1-0.6h-3.5v5.3h3.5c0.9,0,1.6-0.2,2.1-0.6C41.8,29.3,42,28.7,42,27.7z M45.8,27.7c0,2.1-0.5,3.6-1.6,4.5c-1.1,0.9-2.6,1.3-4.6,1.3h-3.8V40H32V22h7.8c1.8,0,3.2,0.5,4.3,1.4S45.8,25.8,45.8,27.7z M52.2,25.1v11.7h3.5c1.8,0,3-0.9,3.7-2.6c0.4-1,0.6-2.1,0.6-3.4c0-1.8-0.3-3.2-0.9-4.2c-0.6-1-1.7-1.5-3.4-1.5H52.2z M56.3,22c1.1,0,2,0.1,2.8,0.4c1.3,0.4,2.3,1.2,3.1,2.3c0.6,0.9,1.1,1.9,1.3,2.9c0.2,1,0.3,2,0.3,3c0,2.4-0.5,4.4-1.4,6.1c-1.3,2.2-3.3,3.4-6,3.4h-7.8V22H56.3z M79.4,22H66.7v18h3.7v-7.5h7.9v-3.1h-7.9v-4.1h9V22z M18,64h9v8h-9V64z M93,64H36v8h57V64z M18,102h9v8h-9V102z M93,102H36v8h57V102z M18,121h9v8h-9V121z M84,121H36v8h48V121z M18,83h9v8h-9V83z M75,83H36v8h39V83z" fill-rule="evenodd" clip-rule="evenodd" fill="#B1B4B6"/>
</svg>
